<svg xmlns="http://www.w3.org/2000/svg" width="12" height="12" viewBox="0 0 12 12" fill="none">
  <path d="M6.28 10.41C6.19828 10.4683 6.10039 10.4997 6 10.4997C5.8996 10.4997 5.80171 10.4683 5.72 10.41C3.3055 8.689 0.742997 5.149 3.3335 2.591C4.04443 1.89106 5.00233 1.49913 6 1.5C7 1.5 7.9595 1.8925 8.6665 2.5905C11.257 5.1485 8.6945 8.688 6.28 10.41Z" stroke="#0B752F" stroke-linecap="round" stroke-linejoin="round"/>
  <path d="M6 6C6.26522 6 6.51957 5.89464 6.70711 5.70711C6.89464 5.51957 7 5.26522 7 5C7 4.73478 6.89464 4.48043 6.70711 4.29289C6.51957 4.10536 6.26522 4 6 4C5.73478 4 5.48043 4.10536 5.29289 4.29289C5.10536 4.48043 5 4.73478 5 5C5 5.26522 5.10536 5.51957 5.29289 5.70711C5.48043 5.89464 5.73478 6 6 6Z" stroke="#0B752F" stroke-linecap="round" stroke-linejoin="round"/>
</svg>