<svg xmlns="http://www.w3.org/2000/svg" width="24" height="25" viewBox="0 0 24 25" fill="none">
    <path d="M5.5 15.5H9V19H5.5V15.5ZM15 6H18.5V9.5H15V6ZM5.5 6H9V9.5H5.5V6ZM11.75 6H12.25V6.5H11.75V6ZM11.75 9.125H12.25V9.625H11.75V9.125ZM8.625 12.25H9.125V12.75H8.625V12.25ZM11.75 15.375H12.25V15.875H11.75V15.375ZM11.75 18.5H12.25V19H11.75V18.5ZM5.5 12.25H6V12.75H5.5V12.25ZM11.75 12.25H12.25V12.75H11.75V12.25ZM14.875 12.25H15.375V12.75H14.875V12.25ZM18 12.25H18.5V12.75H18V12.25ZM14.875 15.375H15.375V15.875H14.875V15.375ZM18 15.375H18.5V15.875H18V15.375ZM14.875 18.5H15.375V19H14.875V18.5ZM18 18.5H18.5V19H18V18.5Z" stroke="#0B752F" stroke-linejoin="round"/>
</svg>